# xmcd
#
# Track frame offsets:
# 150
# 14859
# 31075
# 46798
# 64489
# 77261
# 94472
# 112564
# 131998
# 142988
# 165064
# 180473
# 197078
# 214476
#
# Disc length: 3047 seconds
#
#
# Revision: 0
# Processed by: cddbd v1.5.1PL2 Copyright (c) Steve Scherf et al.
# Submitted via: FreeRIP 2.945 
#
DISCID=b80be50e
DTITLE=Toby Keith - Greatest Hits Vol. 1
DYEAR=1998
DGENRE=Country
TTITLE0=Getcha Some
TTITLE1=If A Man Answers
TTITLE2=Should've Been A Cowboy
TTITLE3=Dream Walkin'
TTITLE4=A Little Less Talk And A lot More Action
TTITLE5=Does That Blue Moon Ever Shine On You
TTITLE6=I'm So Happy I Can't Stop Crying
TTITLE7=We Were In Love
TTITLE8=You Ain't Much Fun
TTITLE9=Who's That Man
TTITLE10=Wish I Didn't Know Now
TTITLE11=Big Ol' Truck
TTITLE12=Me Too
TTITLE13=He Ain't Worth Missing
EXTD=YEAR: 1998
EXTT0=
EXTT1=
EXTT2=
EXTT3=
EXTT4=
EXTT5=
EXTT6=
EXTT7=
EXTT8=
EXTT9=
EXTT10=
EXTT11=
EXTT12=
EXTT13=
PLAYORDER=
